PathFileType	4	(X/Y/Z)	C:\Users\Basilio\Documents\Thesis Gigler\squatting_fais\c3dfiles\076\SLS_back_pre3\markers_experimental.trc
DataRate	CameraRate	NumFrames	NumMarkers	Units	OrigDataRate	OrigDataStartFrame	OrigNumFrames
200.000000	200.000000	4	61	mm	200.000000	1550	1772
Frame#	Time	FHD			LBHD			RBHD			C7			T10			CLAV			LSHO			LUUPA			LMUPA			LDUPA			LLEP			LMEP			LRAD			LUL			LRFIN			RSHO			RUPA1			RMUPA			RDUPA			RLEP			RMEP			RRAD			RUL			RUFIN			LASI			RASI			USACR			LSACR			RSACR			LTHI1			LTHI2			LTHI3			LTHI4			LLFC			LMFC			LTIB1			LTIB2			LTIB3			LTIB4			LLMAL			LMMAL			LHEE			LMT1			LMT2			LMT5			RTHI			RTHI2			RTHI3			RTHI4			RLFC			RMFC			RTIB1			RTIB2			RTIB3			RTIB4			RLMAL			RMMAL			RHEE			RMT1			RMT2			RMT5			
		X1	Y1	Z1	X2	Y2	Z2	X3	Y3	Z3	X4	Y4	Z4	X5	Y5	Z5	X6	Y6	Z6	X7	Y7	Z7	X8	Y8	Z8	X9	Y9	Z9	X10	Y10	Z10	X11	Y11	Z11	X12	Y12	Z12	X13	Y13	Z13	X14	Y14	Z14	X15	Y15	Z15	X16	Y16	Z16	X17	Y17	Z17	X18	Y18	Z18	X19	Y19	Z19	X20	Y20	Z20	X21	Y21	Z21	X22	Y22	Z22	X23	Y23	Z23	X24	Y24	Z24	X25	Y25	Z25	X26	Y26	Z26	X27	Y27	Z27	X28	Y28	Z28	X29	Y29	Z29	X30	Y30	Z30	X31	Y31	Z31	X32	Y32	Z32	X33	Y33	Z33	X34	Y34	Z34	X35	Y35	Z35	X36	Y36	Z36	X37	Y37	Z37	X38	Y38	Z38	X39	Y39	Z39	X40	Y40	Z40	X41	Y41	Z41	X42	Y42	Z42	X43	Y43	Z43	X44	Y44	Z44	X45	Y45	Z45	X46	Y46	Z46	X47	Y47	Z47	X48	Y48	Z48	X49	Y49	Z49	X50	Y50	Z50	X51	Y51	Z51	X52	Y52	Z52	X53	Y53	Z53	X54	Y54	Z54	X55	Y55	Z55	X56	Y56	Z56	X57	Y57	Z57	X58	Y58	Z58	X59	Y59	Z59	X60	Y60	Z60	X61	Y61	Z61	

1551	7.75	-166.4805145263672	1612.2568359375	-1018.445434570313	-312.2302551269532	1577.398803710938	-1124.228271484375	-308.2909240722657	1584.441528320313	-971.4892578125002	-384.7181091308595	1452.458984375	-1045.806884765625	-413.431121826172	1131.799438476563	-1043.608032226563	-253.8559112548829	1371.32421875	-1037.671264648438	-311.3798522949219	1388.079956054688	-1217.619873046875	-273.4165344238282	1189.568359375	-1273.213500976563	-238.3618164062501	1171.556030273438	-1243.30517578125	-255.7690887451172	1122.890991210938	-1277.264038085938	-254.6343078613282	1064.61669921875	-1279.132202148438	-295.2729187011719	1044.064453125	-1209.993041992188	-80.99475097656251	911.0363769531252	-1187.406860351563	-102.4709548950196	875.9796142578127	-1238.130615234375	-15.50223350524903	855.3465576171877	-1182.892578125	-327.4753417968751	1382.297241210938	-871.186218261719	-356.1859741210938	1184.161254882813	-799.0332641601565	-311.7358093261719	1162.957153320313	-800.2317504882815	-348.1752929687501	1114.48779296875	-794.215270996094	-332.3753051757813	1048.128173828125	-792.1085205078127	-332.0578918457032	1035.763793945313	-873.6666259765627	-153.2254028320313	879.161315917969	-818.2941894531252	-201.0833740234376	849.4329223632815	-781.4741210937502	-106.7827682495117	819.8266601562502	-791.3723144531252	-249.8900604248047	942.9173583984377	-1126.90869140625	-256.2794494628907	959.7260742187502	-909.3964843750002	-416.8149414062501	1023.962951660156	-1030.261352539063	-421.9016723632814	994.0039672851565	-1056.732421875	-427.3392944335939	997.4830322265627	-1000.032531738281	-338.1479797363282	787.109069824219	-1178.13232421875	-318.5139465332032	706.2741088867189	-1167.412963867188	-269.5174255371094	705.0376586914064	-1158.287963867188	-352.4384460449219	659.0274047851564	-1149.38330078125	-366.7938232421876	499.5164794921876	-1110.982788085938	-327.5861511230469	500.503387451172	-997.4468383789065	-327.7450561523438	362.3098449707032	-1034.94384765625	-355.0912170410157	303.8620300292969	-1095.01123046875	-322.6355895996094	309.8509826660157	-1061.632202148438	-331.2501831054688	235.5557403564454	-1022.055480957031	-383.5548706054688	105.0382232666016	-1059.6640625	-355.6852111816407	124.0355987548828	-982.928405761719	-441.7913513183595	96.42726898193362	-1007.827331542969	-240.3105926513672	54.32812881469728	-994.6793212890627	-235.2787322998047	49.82315063476564	-1033.2138671875	-258.9734802246094	42.73571777343751	-1082.951538085938	-308.9767456054688	718.6079101562501	-809.1956787109377	-260.2604980468751	673.6449584960939	-795.0898437500002	-226.7498626708985	681.2899169921876	-801.5669555664065	-268.9965820312501	590.6131591796876	-800.754821777344	-259.7427978515626	535.8549194335939	-799.2152099609377	-219.0368347167969	518.8363647460939	-907.3706665039065	-233.0240173339844	397.072479248047	-801.7829589843752	-319.5556640625001	332.5373840332032	-783.896911621094	-274.0418395996094	321.2176513671876	-788.4929199218752	-265.6600952148438	272.5049133300782	-819.4058227539065	-355.5370178222657	141.2546539306641	-789.5646972656252	-321.4858093261719	153.6649017333985	-868.9165039062502	-411.1141357421876	130.8494262695313	-839.4307250976565	-213.9535064697266	71.30415344238283	-848.871765136719	-209.9088287353516	71.13805389404298	-802.8031005859377	-245.6132049560547	54.39056777954103	-755.0670166015626	
1552	7.755	-166.4010467529297	1612.249633789063	-1018.432556152344	-312.2122497558594	1577.2216796875	-1124.150756835938	-308.1461181640626	1584.517944335938	-971.2720947265627	-384.6333618164064	1452.427490234375	-1045.505859375	-413.2385253906251	1131.855224609375	-1043.334594726563	-253.7614135742188	1371.365966796875	-1037.392578125	-311.4547424316407	1387.958251953125	-1217.324584960938	-273.9571533203126	1189.24462890625	-1272.750610351563	-239.5595245361329	1171.387939453125	-1243.158569335938	-256.3375854492188	1122.477661132813	-1276.853393554688	-256.6815795898438	1064.407348632813	-1278.769897460938	-296.3750000000001	1043.927734375	-1209.388916015625	-82.94180297851564	909.845886230469	-1186.760131835938	-104.6244583129883	874.6566162109377	-1237.456909179688	-17.99001693725586	853.8244628906252	-1182.275390625	-327.1966552734376	1382.257934570313	-870.8418579101565	-356.0919799804688	1184.137329101563	-798.7283325195315	-311.6640930175782	1162.866577148438	-799.934020996094	-348.1911926269532	1114.46142578125	-793.982360839844	-332.5296630859376	1048.116088867188	-791.9419555664065	-332.2454833984376	1035.796264648438	-873.3723754882815	-154.2254180908203	878.1233520507815	-817.9802246093752	-202.2917938232422	848.7011718750002	-781.2916259765627	-108.2010726928711	818.5886840820315	-790.7069091796877	-249.3380889892579	942.572937011719	-1126.632568359375	-256.2537841796876	959.610778808594	-909.2572021484377	-416.5702514648439	1023.962097167969	-1030.007080078125	-421.8416442871095	993.920837402344	-1056.559204101563	-427.2407531738282	997.321716308594	-999.8157348632815	-337.7131652832032	787.111267089844	-1178.003784179688	-318.4033508300782	706.3148193359376	-1167.302978515625	-269.3242797851563	705.0640258789064	-1158.120361328125	-352.2520446777344	659.0850830078126	-1149.195678710938	-366.7727050781251	499.5840759277345	-1110.871337890625	-327.6657104492188	500.4537048339845	-997.263122558594	-327.7156677246094	362.2598266601563	-1034.885986328125	-355.0942687988282	303.8154907226563	-1094.916137695313	-322.6587219238282	309.8396301269532	-1061.544799804688	-331.2066650390626	235.3967742919922	-1021.944152832031	-383.5418395996094	105.0544509887696	-1059.743041992188	-355.7559509277344	124.0173416137696	-982.889831542969	-442.0617065429689	96.59529876708987	-1007.904663085938	-240.2900543212891	54.32661056518556	-994.710144042969	-235.2355194091797	49.84168624877931	-1033.192504882813	-258.9474182128907	42.74353790283204	-1082.9755859375	-309.7227783203126	718.4291381835939	-809.1354980468752	-261.2452392578126	673.2199096679689	-794.9409790039065	-227.7467498779297	680.5962524414064	-801.5942993164065	-270.3048706054688	590.2540893554689	-800.6807250976565	-261.0724487304688	535.2689819335939	-799.1292724609377	-220.7842712402344	518.3453369140626	-907.7232666015627	-233.7928771972657	396.4924926757814	-801.7462158203127	-320.0000610351563	331.6490783691407	-783.748962402344	-274.3565979003907	320.3285827636719	-788.1577758789065	-265.9382629394532	271.2334594726563	-818.5977172851565	-354.5350036621094	139.7566833496094	-789.0390625000002	-320.5211791992188	152.3909454345703	-868.3953247070315	-410.2016601562501	129.1748962402344	-838.7387695312502	-212.5780029296876	70.72777557373048	-848.4707641601565	-208.4716033935547	70.5189895629883	-802.4720458984377	-243.9559020996094	53.4353370666504	-754.6123657226564	
1553	7.76	-166.2935638427735	1612.285522460938	-1018.390319824219	-312.3312988281251	1577.093872070313	-1124.0234375	-308.0227355957032	1584.54833984375	-971.1345214843752	-384.5357360839845	1452.425415039063	-1045.10546875	-413.1850891113282	1131.853759765625	-1043.06005859375	-253.6731109619141	1371.403442382813	-1037.12646484375	-311.4763488769532	1387.870361328125	-1217.004516601563	-274.5155639648438	1188.93798828125	-1272.367309570313	-239.5440368652344	1170.692016601563	-1242.266967773438	-257.2299804687501	1122.1435546875	-1276.375	-256.4316711425782	1063.774780273438	-1278.010498046875	-297.6563415527344	1043.628295898438	-1209.004272460938	-84.77920532226564	908.4273071289065	-1185.937866210938	-106.4272613525391	873.392761230469	-1236.736694335938	-20.21381187438965	852.026062011719	-1181.277709960938	-326.9886474609376	1382.306884765625	-870.5423583984377	-356.0658874511719	1184.061889648438	-798.395446777344	-311.6259155273438	1162.8310546875	-799.5831298828127	-348.2087097167969	1114.454956054688	-793.7149658203127	-332.7059936523438	1048.142456054688	-791.762634277344	-332.3591308593751	1035.859252929688	-873.0897216796877	-155.3414154052735	877.189392089844	-817.5950317382815	-203.5090484619141	848.0989990234377	-780.9505004882815	-109.3857574462891	817.9447021484377	-790.275329589844	-249.1598052978516	942.5466918945315	-1126.493286132813	-256.0554809570313	959.4897460937502	-909.0742797851565	-416.4184570312501	1023.950866699219	-1029.749267578125	-421.7741088867189	993.8769531250002	-1056.383666992188	-427.0382080078126	997.2352294921877	-999.595886230469	-337.4665222167969	787.1448974609377	-1177.8515625	-318.2110595703126	706.3929443359376	-1167.161254882813	-269.2140502929688	705.1088256835939	-1157.948608398438	-352.1710510253907	659.0926513671876	-1149.108520507813	-366.7187500000001	499.6192321777345	-1110.739990234375	-326.6903076171876	500.6959533691407	-997.6216430664065	-327.6172180175782	362.2886657714844	-1034.812255859375	-355.0814514160157	303.8548889160157	-1094.840454101563	-322.6775817871094	309.8879089355469	-1061.449340820313	-331.4543151855469	235.5085906982422	-1022.128356933594	-383.5204772949219	105.0411376953125	-1059.738037109375	-356.3712768554688	123.7478256225586	-982.858825683594	-441.7669067382814	96.44583129882815	-1007.879272460938	-240.3018035888672	54.32399749755861	-994.7371215820315	-235.2864074707032	49.82957458496095	-1033.212524414063	-258.8561401367188	42.74530792236329	-1082.960693359375	-310.3789672851563	718.3121948242189	-809.067321777344	-262.2928771972657	672.5641479492189	-795.019714355469	-228.5979461669922	680.1831054687501	-801.6268310546877	-271.5587463378907	589.8859863281251	-800.671081542969	-262.6889953613282	534.6799926757814	-799.2110595703127	-221.6735534667969	517.5632934570314	-907.643737792969	-234.5311431884766	396.0702514648439	-801.7414550781252	-320.2455139160157	330.6788330078126	-783.3979492187502	-274.6066284179688	319.6697692871094	-788.0009765625002	-265.9766235351563	270.4092102050782	-818.231628417969	-353.4075012207032	138.5289611816407	-788.332214355469	-320.7841491699219	151.4523468017578	-867.949401855469	-409.1019897460939	127.3567428588867	-838.0471801757815	-211.2117919921876	70.11159515380861	-848.1074829101565	-207.0861968994141	69.87075805664064	-802.183532714844	-242.6036529541016	52.60897827148439	-754.1683959960939	
1554	7.765000000000001	-166.2191467285157	1612.322875976563	-1018.312561035156	-312.3268432617188	1577.12158203125	-1123.844970703125	-307.8610534667969	1584.575927734375	-970.9254150390627	-384.4113769531251	1452.491333007813	-1044.690063476563	-412.9837646484376	1131.9150390625	-1042.786376953125	-253.5293121337891	1371.425903320313	-1036.8251953125	-311.4591369628907	1387.729370117188	-1216.720825195313	-275.0783386230469	1188.60205078125	-1271.9326171875	-240.4209136962891	1170.435180664063	-1241.984130859375	-258.1188049316407	1121.74560546875	-1275.7900390625	-258.0729980468751	1063.448608398438	-1277.446411132813	-298.9271545410157	1043.496337890625	-1208.453735351563	-86.80142211914064	906.8986816406252	-1185.086547851563	-108.393424987793	871.946228027344	-1235.82421875	-22.50888633728028	850.1732177734377	-1180.511474609375	-326.7553100585938	1382.263549804688	-870.260192871094	-355.9629821777344	1183.9892578125	-798.049255371094	-311.6434936523438	1162.757446289063	-799.2927856445315	-348.3504638671876	1114.365112304688	-793.4483642578127	-332.8886108398438	1048.133544921875	-791.5570068359377	-332.6503601074219	1035.8408203125	-872.8272094726565	-156.4688415527344	876.1682739257815	-817.2984619140627	-204.8530731201172	847.2924804687502	-780.4578247070315	-111.0979080200196	816.2827148437502	-790.005798339844	-249.0050506591797	942.6302490234377	-1126.254272460938	-255.9915771484376	959.361267089844	-908.8482666015627	-416.2394409179689	1023.798889160156	-1029.524536132813	-421.5636596679689	993.8009033203127	-1056.12890625	-426.8860473632814	997.2048339843752	-999.3059692382815	-338.3318176269532	787.5075683593752	-1177.90625	-318.1526184082032	706.4262695312501	-1167.013427734375	-268.9729614257813	705.2015991210939	-1157.720703125	-352.0060119628907	659.0845336914064	-1148.9482421875	-366.6968994140626	499.6662902832032	-1110.631713867188	-326.6133422851563	500.5664367675782	-997.518981933594	-327.5029602050782	362.3125915527344	-1034.74462890625	-355.0769348144532	303.8232116699219	-1094.7314453125	-322.6769409179688	309.8338928222657	-1061.3564453125	-331.4174194335938	235.5015411376954	-1022.072021484375	-383.5642395019532	105.0656890869141	-1059.70751953125	-356.1136474609376	123.7298660278321	-982.8530273437502	-442.0784301757814	96.60449981689456	-1007.915649414063	-240.3115997314454	54.32521438598634	-994.6790771484377	-235.2696380615235	49.84395980834962	-1033.2060546875	-259.0215759277344	42.80876541137696	-1083.005126953125	-310.9898986816407	718.1585083007814	-808.9840087890627	-263.1436157226563	672.3292846679689	-794.9641723632815	-229.4990997314454	679.5852661132814	-801.7710571289065	-272.7762756347657	589.6375122070314	-800.5974121093752	-264.0425415039063	534.1973876953126	-799.2565917968752	-223.2828216552735	516.9747314453126	-907.8532714843752	-235.3055419921876	395.6398925781251	-801.7427978515627	-320.6050109863282	329.6929016113282	-783.2669067382815	-274.9063110351563	319.0106201171876	-787.8376464843752	-266.0519104003907	269.7754211425782	-817.9387207031252	-352.5660095214844	137.1590270996094	-787.798522949219	-319.0077514648438	149.9173126220703	-867.2500000000002	-408.0364685058595	125.8961791992188	-837.3326416015627	-210.0597686767579	69.55551910400392	-847.8391723632815	-205.909896850586	69.22876739501955	-801.812438964844	-241.1819000244141	51.74126052856447	-753.8040161132814	
